<?xml version="1.0" encoding="utf-8"?>
<!-- Generator: Adobe Illustrator 27.0.1, SVG Export Plug-In . SVG Version: 6.00 Build 0)  -->
<svg version="1.1" id="Layer_1" xmlns="http://www.w3.org/2000/svg" xmlns:xlink="http://www.w3.org/1999/xlink" x="0px" y="0px"
	 viewBox="0 0 100 63" style="enable-background:new 0 0 100 63;" xml:space="preserve">
<style type="text/css">
	.st0{fill-rule:evenodd;clip-rule:evenodd;fill:#EC1C24;}
	.st1{fill:#EC1C24;}
</style>
<g>
	<path class="st0" d="M46.6,59.3l-3.9-7.5h13.7C54.4,56.3,51,58.8,46.6,59.3L46.6,59.3z"/>
	<path class="st0" d="M29.9,24.6l-3.3-6.9h36c-1.1,3.1-3.4,5.4-6.8,7L29.9,24.6L29.9,24.6z"/>
	<path class="st0" d="M34,33l-3.3-7h54.4c-1.1,3.1-3.4,5.4-6.8,7H34z"/>
	<path class="st0" d="M38.2,41.8l-3.5-7.1h41.2c-1.9,3.5-4.4,5.8-7.6,7.1H38.2z"/>
	<path class="st0" d="M58.4,50.2H42.2l-3.3-6.9h27.2C64.5,46.4,61.9,48.7,58.4,50.2z"/>
	<path class="st0" d="M2.6,36.8l7,3.8l2,5.4l3.6,1.9l8.8,9.3c0,0,2.1,1.7,8,0.4c0.7-1,0.6-2.1,0.6-2.1l-0.4-0.7
		c-0.3-0.5-0.5-1.1-0.4-1.8l2.1,1.6v-1.4l-4.2-6.8l0.3-3.1c0.2-1.5,0.1-3.1-0.2-4.6l-0.6-3.1L24,33.2l0.3-0.3l5.7,2l0.9,3.4
		c0.5,1.8,0.7,3.7,0.6,5.6l-0.1,2.7l4.2,6.5c0,0,3.9,5.8,9.1,6.2c-2-4.4-20.1-41.8-20.1-41.8s-13-0.7-15.4,16.3H4l4.6,3L2.6,36.8
		L2.6,36.8z M17.6,42.8c0-0.4,0.5-0.6,0.8-0.4c0.6,0.5,1.3,1.3,1,2.4c-0.3,1.9-2,1.7-1.7,1.3C18,45.8,17.6,42.8,17.6,42.8z"/>
	<polygon class="st1" points="79.4,18.6 84.1,18.6 83.8,20.1 82.6,20.1 82.1,23.7 79.9,23.7 80.4,20.1 79.2,20.1 	"/>
	<polygon points="28.9,3.8 26.6,16.1 31.2,16.1 32.1,9.9 32.7,16.1 36.3,16.1 38.3,9.9 37.6,16.1 42.1,16.1 43.3,3.8 37.8,3.8 
		35.4,10 34.5,3.8 	"/>
	<path d="M55.5,3.8H48l-5.1,12.3h4.8l0.9-1.7H52l0.3,1.7H57L55.5,3.8z M49.8,10.5l1.5-3.6l0.3,3.6H49.8z"/>
	<path d="M83.1,3.8h-7.5l-5.1,12.3h4.8l0.8-1.7h3.4l0.3,1.7h4.7L83.1,3.8z M77.4,10.5L79,6.9l0.3,3.6H77.4z"/>
	<path class="st1" d="M69.2,18.5H66l-2.2,5.2h2l0.3-0.7h1.4l0.2,0.7h2L69.2,18.5z M66.8,21.3l0.6-1.5l0.1,1.5H66.8z"/>
	<polygon points="59.4,3.8 57.6,16.1 62.4,16.1 63,12.2 65,16.1 69.8,16.1 71.4,3.8 66.5,3.8 66.1,8.5 64.1,3.8 	"/>
	<path d="M92.2,12.3c-0.9,0-1.6-0.7-1.4-1.7L91.1,9c0.1-0.9,1-1.7,1.9-1.7h3.8l0.6-3.7h-4.7c-1.4,0-2.8,0.3-4,0.9
		c-1.8,0.8-3.7,2.4-3.9,5.5c-0.3,5.7,5,6.1,5,6.1h5.8l0.6-3.7v-0.1L92.2,12.3L92.2,12.3z"/>
	<path class="st1" d="M75.4,18.6l-0.7,3.6c0,0.2-0.2,0.3-0.4,0.3h-0.1c-0.3,0-0.4-0.2-0.4-0.5l0.6-3.5h-2.3l-0.4,2.8
		c-0.2,1.6,0.6,2.4,2.4,2.4c1.8,0,2.9-0.8,3.1-2.4l0.4-2.8L75.4,18.6L75.4,18.6z"/>
	<path class="st1" d="M90.5,19.3c-0.3-0.4-0.7-0.7-1.3-0.7c-0.1,0-0.2,0-0.3,0H88c-0.1,0-0.3,0-0.4,0c-0.6,0.1-1,0.3-1.4,0.7
		c-0.5,0.5-0.8,1.1-0.9,1.9c-0.1,0.7,0,1.4,0.4,1.9c0.3,0.4,0.7,0.7,1.3,0.7c0.1,0,0.2,0,0.3,0h0.9c0.1,0,0.3,0,0.4,0
		c0.6-0.1,1-0.3,1.4-0.7c0.5-0.5,0.8-1.1,0.9-1.9S90.9,19.7,90.5,19.3z M88.7,20.6l-0.1,1.2c0,0.2-0.2,0.3-0.3,0.3h-0.5
		c-0.2,0-0.4-0.2-0.3-0.4l0.1-1.2c0-0.2,0.2-0.3,0.3-0.3h0.4C88.6,20.2,88.7,20.4,88.7,20.6z"/>
</g>
</svg>
